# xmcd
#
# Track frame offsets:
#	150
#	11579
#	28765
#	50158
#	59516
#	80441
#	93913
#	104656
#	118859
#	129610
#	148101
#	155023
#	168311
#	182008
#	192861
#	207264
#
# Disc length: 2909 seconds
#
# Revision: 0
# Processed by: cddbd v1.4PL0 Copyright (c) Steve Scherf et al.
# Submitted via: audiograbber 1.80
#
DISCID=e90b5b10
DTITLE=Manu Chao - Clandestino
DYEAR=1900
DGENRE=
TTITLE0=Clandestino
TTITLE1=Desaparecido
TTITLE2=Bongo Bong
TTITLE3=Je Ne T'aime Plus
TTITLE4=Mentira...
TTITLE5=Lagrimas De Oro
TTITLE6=Mama Call
TTITLE7=Luna Y Sol
TTITLE8=Por El Suelo
TTITLE9=Welcome To Tijuana
TTITLE10=Dia Luna... Dia Pena
TTITLE11=Malegria
TTITLE12=La Vie A 2
TTITLE13=Minha Galera
TTITLE14=La Despedia
TTITLE15=El Viento
EXTD=
EXTT0=
EXTT1=
EXTT2=
EXTT3=
EXTT4=
EXTT5=
EXTT6=
EXTT7=
EXTT8=
EXTT9=
EXTT10=
EXTT11=
EXTT12=
EXTT13=
EXTT14=
EXTT15=
PLAYORDER=
